HIERARCHY
ROOT Hips
{
	OFFSET 0.00000 0.00000 0.00000
	CHANNELS 6 Xposition Yposition Zposition Zrotation Yrotation Xrotation 
	JOINT LHipJoint
	{
		OFFSET 0 0 0
		CHANNELS 3 Zrotation Yrotation Xrotation
		JOINT LeftHip
		{
			OFFSET 1.34019 -1.87553 0.90315
			CHANNELS 3 Zrotation Yrotation Xrotation
			JOINT LeftKnee
			{
				OFFSET 2.55316 -7.01474 0.00000
				CHANNELS 3 Zrotation Yrotation Xrotation
				JOINT LeftAnkle
				{
					OFFSET 2.64657 -7.27139 0.00000
					CHANNELS 3 Zrotation Yrotation Xrotation
					JOINT LeftToe
					{
						OFFSET 0.24207 -0.66507 2.14489
						CHANNELS 3 Zrotation Yrotation Xrotation
						End Site
						{
							OFFSET 0.00000 -0.00000 1.12451
						}
					}
				}
			}
		}
	}
	JOINT RHipJoint
	{
		OFFSET 0 0 0
		CHANNELS 3 Zrotation Yrotation Xrotation
		JOINT RightHip
		{
			OFFSET -1.28320 -1.87553 0.90315
			CHANNELS 3 Zrotation Yrotation Xrotation
			JOINT RightKnee
			{
				OFFSET -2.60484 -7.15674 0.00000
				CHANNELS 3 Zrotation Yrotation Xrotation
				JOINT RightAnkle
				{
					OFFSET -2.60296 -7.15159 0.00000
					CHANNELS 3 Zrotation Yrotation Xrotation
					JOINT RightToe
					{
						OFFSET -0.31082 -0.85398 2.28998
						CHANNELS 3 Zrotation Yrotation Xrotation
						End Site
						{
							OFFSET -0.00000 -0.00000 1.21611
						}
					}
				}
			}
		}
	}
	JOINT lowerback
	{
		OFFSET 0 0 0
		CHANNELS 3 Zrotation Yrotation Xrotation
		JOINT Chest
		{
			OFFSET -0.00160 2.05581 -0.15156
			CHANNELS 3 Zrotation Yrotation Xrotation
			JOINT Chest2
			{
				OFFSET 0.04594 2.06326 -0.01617
				CHANNELS 3 Zrotation Yrotation Xrotation
				JOINT lowerneck
				{
					OFFSET 0 0 0
					CHANNELS 3 Zrotation Yrotation Xrotation
					JOINT Neck
					{
						OFFSET 0.03753 1.73883 0.26751
						CHANNELS 3 Zrotation Yrotation Xrotation
						JOINT Head
						{
							OFFSET -0.09795 1.76129 -0.31794
							CHANNELS 3 Zrotation Yrotation Xrotation
							End Site
							{
								OFFSET -0.03611 1.79987 -0.13846
							}
						}
					}
				}
				JOINT LeftCollar
				{
					OFFSET 0 0 0
					CHANNELS 3 Zrotation Yrotation Xrotation
					JOINT LeftShoulder
					{
						OFFSET 3.30667 1.29205 -0.22445
CHANNELS 3 Zrotation Xrotation Yrotation
						JOINT LeftElbow
						{
OFFSET 0 -4.927850 -0.000000
CHANNELS 3 Zrotation Xrotation Yrotation
							JOINT LeftWrist
							{
OFFSET 0 -3.440520 0.000000
CHANNELS 3 Zrotation Xrotation Yrotation
								JOINT lhand
								{
									OFFSET 0 0 0
CHANNELS 3 Zrotation Xrotation Yrotation
									JOINT LFingers
									{
OFFSET 0 -0.654330 0.000000
CHANNELS 3 Zrotation Xrotation Yrotation
										End Site
										{
OFFSET 0 -0.527530 0.000000
										}
									}
								}
								JOINT LThumb
								{
OFFSET 0 0.000000 0.000000
CHANNELS 3 Zrotation Xrotation Yrotation
									End Site
									{
OFFSET 0 -0.535590 0.535590
									}
								}
							}
						}
					}
				}
				JOINT RightCollar
				{
					OFFSET 0 0 0
					CHANNELS 3 Zrotation Yrotation Xrotation
					JOINT RightShoulder
					{
						OFFSET -3.20032 1.49783 -0.27688
CHANNELS 3 Zrotation Xrotation Yrotation
						JOINT RightElbow
						{
OFFSET 0 -5.091810 -0.000000
CHANNELS 3 Zrotation Xrotation Yrotation
							JOINT RightWrist
							{
OFFSET 0 -3.498650 -0.000000
CHANNELS 3 Zrotation Xrotation Yrotation
								JOINT rhand
								{
									OFFSET 0 0 0
CHANNELS 3 Zrotation Xrotation Yrotation
									JOINT RFingers
									{
OFFSET 0 -0.666410 0.000000
CHANNELS 3 Zrotation Xrotation Yrotation
										End Site
										{
OFFSET 0 -0.537280 0.000000
										}
									}
								}
								JOINT RThumb
								{
OFFSET 0 0.000000 0.000000
CHANNELS 3 Zrotation Xrotation Yrotation
									End Site
									{
OFFSET 0 -0.545480 0.545480
									}
								}
							}
						}
					}
				}
			}
		}
	}
}
MOTION
Frames: 5
Frame Time: 0.008333333333333333
-0.008927 17.651067 -10.727790 -360.006599 -1.790950 361.875150 0.000000 0.000000 0.000000 -32.838456 -13.723488 -0.744910 2.110505 9.092016 26.084063 0.702215 3.309197 -17.376825 0.001573 0.254459 0.699184 0.000000 0.000000 0.000000 5.307207 17.649461 -27.745107 -9.724486 -17.250166 58.560868 0.058384 -15.548123 -21.464270 -0.001927 0.285077 -0.783322 -1.761657 0.660481 5.959833 1.595122 0.820151 -1.510302 2.562849 0.484524 -4.961161 6.859460 2.338058 -17.352900 -6.978339 2.914341 18.576387 -3.152614 1.110698 8.880405 0.000000 0.000000 0.000000 18.258800 -0.567140 -2.371450 18.444513 -28.722601 4.760916 13.952468 -8.625358 -3.667859 0.000000 0.000000 0.000000 -7.125000 0.000000 0.000000 -10.340488 33.623806 -2.925070 0.000000 0.000000 0.000000 -18.510168 9.342130 -4.046966 -15.441725 -24.757865 -3.408785 -19.429928 0.221415 9.979481 0.000000 0.000000 0.000000 7.125000 0.000000 0.000000 6.675110 40.460258 0.750962
0.136502 17.621211 -9.587649 -356.161017 5.869688 361.779060 0.000000 0.000000 0.000000 -36.386668 -8.436954 9.678500 0.570783 4.835304 13.440055 0.514704 -5.752006 -12.810007 0.001359 0.238217 0.654611 0.000000 0.000000 0.000000 8.472005 20.343319 -38.220163 -3.436528 -11.369194 33.536632 0.410934 -11.288611 -3.977012 -0.047085 1.400273 -3.850880 -5.742474 -3.056321 6.364653 1.126113 -4.466112 -0.343458 4.780833 -2.109256 -3.394911 7.451184 3.611984 -16.922280 -7.862673 4.631067 16.613742 -3.308217 1.880802 8.309419 0.000000 0.000000 0.000000 17.479116 -16.575517 -10.297788 19.598867 -30.155964 5.328424 14.422648 -10.314413 -2.909757 0.000000 0.000000 0.000000 -7.125000 0.000000 0.000000 -9.863329 32.870736 -2.968781 0.000000 0.000000 0.000000 -20.743099 20.201676 -5.240079 -15.706701 -25.121383 -3.520566 -17.244902 -1.572197 9.752972 0.000000 0.000000 0.000000 7.125000 0.000000 0.000000 8.534986 40.040065 1.052411
0.581338 17.320878 -8.067582 -352.506471 7.969654 363.973481 0.000000 0.000000 0.000000 -38.968130 0.089634 18.310316 0.000000 0.000000 0.000000 -0.086941 -13.246411 -8.158248 0.005900 0.497064 1.365859 0.000000 0.000000 0.000000 17.378277 19.416077 -45.042379 -2.979367 -10.661078 31.145725 -0.772046 -4.447257 15.690809 -0.065831 1.653043 -4.547907 -8.272763 -6.824348 5.457711 0.550331 -9.624817 -0.637398 5.724636 -4.685698 -2.258221 9.054432 6.320312 -14.582786 -9.280120 8.301251 14.679520 -3.600184 3.655622 7.698351 0.000000 0.000000 0.000000 11.630315 -27.003879 -18.122025 20.481602 -31.218154 5.778919 14.226751 -10.779496 -1.925621 0.000000 0.000000 0.000000 -7.125000 0.000000 0.000000 -9.900855 31.864792 -3.224005 0.000000 0.000000 0.000000 -21.571224 26.283053 -9.066050 -16.124516 -25.689156 -3.699750 -16.870174 -3.178098 9.645059 0.000000 0.000000 0.000000 7.125000 0.000000 0.000000 8.839557 39.898046 1.121765
1.508636 16.912722 -6.219375 -352.951185 12.073628 370.016815 0.000000 0.000000 0.000000 -38.432616 3.231566 19.009981 0.000000 0.000000 0.000000 -0.468374 -17.409313 -7.100524 0.000839 0.188097 0.516931 0.000000 0.000000 0.000000 17.354676 24.603078 -43.841047 -4.549290 -12.857335 38.836982 -0.027712 -7.010434 5.540871 -0.003940 -0.388188 1.066680 -6.041332 -10.178928 5.165742 3.859212 -13.907563 -3.182188 8.216197 -6.719916 -3.802160 11.479027 8.854235 -14.742752 -13.274086 11.867283 13.098458 -4.831821 5.149412 7.986426 0.000000 0.000000 0.000000 -7.172031 -34.592589 -36.844524 19.338032 -29.836517 5.197983 15.108853 -11.052118 -1.113362 0.000000 0.000000 0.000000 -7.125000 0.000000 0.000000 -9.113044 31.056310 -3.140650 0.000000 0.000000 0.000000 -23.906139 30.568097 -17.004799 -15.841927 -25.305821 -3.578151 -16.598785 -4.948447 9.967279 0.000000 0.000000 0.000000 7.125000 0.000000 0.000000 9.132720 40.206588 1.089695
2.455377 16.963333 -4.497648 -353.146087 12.198110 374.227481 0.000000 0.000000 0.000000 -36.923806 9.584196 17.233422 0.000000 0.000000 0.000000 -1.054389 -19.128341 14.528491 0.015472 -0.797891 -2.192841 0.000000 0.000000 0.000000 15.449848 25.209905 -45.749061 -6.599771 -14.985375 47.343925 0.002305 -6.243372 -8.838510 -0.097720 -2.016026 5.550007 -5.100896 -9.746586 7.571403 5.986385 -13.238901 -3.096655 10.444852 -6.337640 -4.868036 11.885232 9.533379 -17.752259 -16.274230 12.432428 8.889561 -5.715203 5.155436 7.479279 0.000000 0.000000 0.000000 -25.363088 -37.052590 -64.978406 18.400185 -28.666558 4.739656 14.443698 -13.313809 0.148346 0.000000 0.000000 0.000000 -7.125000 0.000000 0.000000 -9.508388 29.758894 -3.579522 0.000000 0.000000 0.000000 -17.567199 28.804844 -20.983185 -14.472954 -23.406697 -3.013451 -16.163897 -3.451264 8.529425 0.000000 0.000000 0.000000 7.125000 0.000000 0.000000 9.249808 38.698675 1.451080
